<?xml version="1.0" encoding="utf-8"?>
<!-- Generator: Adobe Illustrator 25.0.1, SVG Export Plug-In . SVG Version: 6.00 Build 0)  -->
<svg version="1.1" id="Layer_1" xmlns="http://www.w3.org/2000/svg" xmlns:xlink="http://www.w3.org/1999/xlink" x="0px" y="0px"
	 viewBox="0 0 31.88 32" style="enable-background:new 0 0 31.88 32;" xml:space="preserve">
<style type="text/css">
	.st0{fill:url(#SVGID_1_);}
	.st1{fill:url(#SVGID_2_);}
	.st2{fill:url(#SVGID_3_);}
	.st3{fill:url(#SVGID_4_);}
	.st4{fill:url(#SVGID_5_);}
	.st5{fill:url(#SVGID_6_);}
	.st6{fill:url(#SVGID_7_);}
	.st7{fill:url(#SVGID_8_);}
	.st8{fill:url(#SVGID_9_);}
	.st9{fill:url(#SVGID_10_);}
	.st10{fill:url(#SVGID_11_);}
	.st11{fill:url(#SVGID_12_);}
	.st12{fill:url(#SVGID_13_);}
	.st13{fill:url(#SVGID_14_);}
	.st14{fill:url(#SVGID_15_);}
	.st15{fill:#9B1E21;}
	.st16{fill:#B14A26;}
	.st17{fill:#C37029;}
	.st18{fill:#CD862A;}
	.st19{fill:#E4AD26;}
	.st20{fill:#B4C035;}
	.st21{fill:#68A042;}
	.st22{fill:#1D9C59;}
	.st23{fill:#20AD92;}
	.st24{fill:#1B6891;}
	.st25{fill:#2F4280;}
	.st26{fill:#412E7C;}
	.st27{fill:#663886;}
	.st28{fill:#944197;}
	.st29{fill:url(#SVGID_16_);}
	.st30{fill:url(#SVGID_17_);}
	.st31{fill:url(#SVGID_18_);}
	.st32{fill:url(#SVGID_19_);}
	.st33{fill:url(#SVGID_20_);}
	.st34{fill:url(#SVGID_21_);}
	.st35{fill:url(#SVGID_22_);}
	.st36{fill:url(#SVGID_23_);}
	.st37{fill:url(#SVGID_24_);}
	.st38{fill:url(#SVGID_25_);}
	.st39{fill:url(#SVGID_26_);}
	.st40{fill:url(#SVGID_27_);}
	.st41{fill:url(#SVGID_28_);}
	.st42{fill:url(#SVGID_29_);}
	.st43{fill:url(#SVGID_30_);}
	.st44{fill:#FCFDFF;}
	.st45{fill:#504F4F;}
	.st46{font-family:'GeosansLight';}
	.st47{font-size:3.6238px;}
</style>
<g>
	<g>
		
			<linearGradient id="SVGID_1_" gradientUnits="userSpaceOnUse" x1="-9988.1768" y1="-1643.9739" x2="-9986.2783" y2="-1643.9739" gradientTransform="matrix(-1 0 0 -1 -9956.8936 -1622.0686)">
			<stop  offset="0" style="stop-color:#C12227"/>
			<stop  offset="0.362" style="stop-color:#C12227"/>
			<stop  offset="0.6844" style="stop-color:#C22429"/>
			<stop  offset="0.8005" style="stop-color:#C72B2F"/>
			<stop  offset="0.8832" style="stop-color:#CF363A"/>
			<stop  offset="0.9497" style="stop-color:#DA4749"/>
			<stop  offset="1" style="stop-color:#E75A5A"/>
		</linearGradient>
		<path class="st0" d="M30.37,26.71c0.42-0.02,0.6-0.1,0.88-0.38l0.03-0.05l0.01-7.38v-1.8h-1.9l0.01,9.16
			c0.08,0.21,0.49,0.45,0.92,0.45C30.33,26.71,30.35,26.71,30.37,26.71"/>
		
			<linearGradient id="SVGID_2_" gradientUnits="userSpaceOnUse" x1="-9986.1211" y1="-1644.4097" x2="-9984.2207" y2="-1644.4097" gradientTransform="matrix(-1 0 0 -1 -9956.8936 -1622.0686)">
			<stop  offset="0" style="stop-color:#EE4235"/>
			<stop  offset="0.362" style="stop-color:#EE4235"/>
			<stop  offset="0.7123" style="stop-color:#EE4337"/>
			<stop  offset="0.8385" style="stop-color:#EC483E"/>
			<stop  offset="0.9282" style="stop-color:#EA4F49"/>
			<stop  offset="1" style="stop-color:#E75A5A"/>
		</linearGradient>
		<path class="st1" d="M28.31,27.58c0.42-0.02,0.6-0.1,0.88-0.38l0.03-0.05l0.01-8.49V17.1h-1.9l0.01,10.04
			c0.08,0.21,0.49,0.45,0.92,0.45C28.27,27.58,28.29,27.58,28.31,27.58"/>
		
			<linearGradient id="SVGID_3_" gradientUnits="userSpaceOnUse" x1="-9983.1152" y1="-1639.1678" x2="-9983.1152" y2="-1650.3224" gradientTransform="matrix(-1 0 0 -1 -9956.8936 -1622.0686)">
			<stop  offset="0" style="stop-color:#F58424"/>
			<stop  offset="0.362" style="stop-color:#F58424"/>
			<stop  offset="0.6676" style="stop-color:#F58526"/>
			<stop  offset="0.7778" style="stop-color:#F5882D"/>
			<stop  offset="0.8562" style="stop-color:#F58E38"/>
			<stop  offset="0.9197" style="stop-color:#F49749"/>
			<stop  offset="0.9734" style="stop-color:#F4A25F"/>
			<stop  offset="1" style="stop-color:#F4A96D"/>
		</linearGradient>
		<path class="st2" d="M26.25,28.25c0.42-0.02,0.6-0.1,0.88-0.38l0.03-0.05l0.01-9.2V17.1h-1.9l0.01,10.71
			c0.08,0.21,0.49,0.45,0.92,0.45C26.22,28.25,26.23,28.25,26.25,28.25"/>
		
			<linearGradient id="SVGID_4_" gradientUnits="userSpaceOnUse" x1="-9981.0586" y1="-1639.1678" x2="-9981.0586" y2="-1650.8748" gradientTransform="matrix(-1 0 0 -1 -9956.8936 -1622.0686)">
			<stop  offset="0" style="stop-color:#FCC175"/>
			<stop  offset="0.0184" style="stop-color:#FCC175"/>
			<stop  offset="0.132" style="stop-color:#FAAC46"/>
			<stop  offset="0.1718" style="stop-color:#F9A435"/>
			<stop  offset="1" style="stop-color:#F9A435"/>
		</linearGradient>
		<path class="st3" d="M24.2,28.8c0.41-0.02,0.6-0.11,0.88-0.43l0.03-0.06l0.01-11.21l0,0h-1.9l0.01,11.19
			c0.08,0.24,0.49,0.52,0.92,0.52C24.16,28.81,24.18,28.81,24.2,28.8"/>
		
			<linearGradient id="SVGID_5_" gradientUnits="userSpaceOnUse" x1="-9979.002" y1="-1639.1678" x2="-9979.002" y2="-1650.6082" gradientTransform="matrix(-1 0 0 -1 -9956.8936 -1622.0686)">
			<stop  offset="0" style="stop-color:#F8DC8B"/>
			<stop  offset="0.0184" style="stop-color:#F8DC8B"/>
			<stop  offset="0.0839" style="stop-color:#F9D676"/>
			<stop  offset="0.1522" style="stop-color:#FAD267"/>
			<stop  offset="0.2086" style="stop-color:#FAD162"/>
			<stop  offset="1" style="stop-color:#FAD162"/>
		</linearGradient>
		<path class="st4" d="M22.14,28.54c0.41-0.02,0.6-0.1,0.88-0.38l0.03-0.05l0.01-9.49V17.1h-1.9l0.01,10.99
			c0.08,0.21,0.49,0.45,0.92,0.45C22.1,28.54,22.12,28.54,22.14,28.54"/>
		
			<linearGradient id="SVGID_6_" gradientUnits="userSpaceOnUse" x1="-9976.9463" y1="-1639.1678" x2="-9976.9463" y2="-1649.8429" gradientTransform="matrix(-1 0 0 -1 -9956.8936 -1622.0686)">
			<stop  offset="0" style="stop-color:#F6F19A"/>
			<stop  offset="0.0184" style="stop-color:#F6F19A"/>
			<stop  offset="0.0245" style="stop-color:#F6F195"/>
			<stop  offset="0.0765" style="stop-color:#F5ED73"/>
			<stop  offset="0.1259" style="stop-color:#F4EB5B"/>
			<stop  offset="0.1712" style="stop-color:#F3E94C"/>
			<stop  offset="0.2086" style="stop-color:#F3E947"/>
			<stop  offset="1" style="stop-color:#F3E947"/>
		</linearGradient>
		<path class="st5" d="M20.08,27.77c0.41-0.02,0.6-0.1,0.88-0.38L21,27.34l0.01-9V17.1h-1.9l0.01,10.23
			c0.08,0.21,0.49,0.45,0.92,0.45C20.05,27.77,20.07,27.77,20.08,27.77"/>
		
			<linearGradient id="SVGID_7_" gradientUnits="userSpaceOnUse" x1="-9974.8896" y1="-1639.1678" x2="-9974.8896" y2="-1649.0869" gradientTransform="matrix(-1 0 0 -1 -9956.8936 -1622.0686)">
			<stop  offset="0" style="stop-color:#CFE082"/>
			<stop  offset="0.0184" style="stop-color:#CFE082"/>
			<stop  offset="0.0447" style="stop-color:#CADE75"/>
			<stop  offset="0.1457" style="stop-color:#B9D547"/>
			<stop  offset="0.1963" style="stop-color:#B2D235"/>
			<stop  offset="1" style="stop-color:#B2D235"/>
		</linearGradient>
		<path class="st6" d="M18.03,27.02c0.42-0.02,0.6-0.1,0.88-0.38l0.03-0.05l0.01-8.23V17.1h-1.9l0.01,9.47
			c0.08,0.21,0.49,0.45,0.92,0.45C17.99,27.02,18.01,27.02,18.03,27.02"/>
		
			<linearGradient id="SVGID_8_" gradientUnits="userSpaceOnUse" x1="-9972.833" y1="-1639.1678" x2="-9972.833" y2="-1648.2852" gradientTransform="matrix(-1 0 0 -1 -9956.8936 -1622.0686)">
			<stop  offset="0" style="stop-color:#93CA6D"/>
			<stop  offset="0.0184" style="stop-color:#93CA6D"/>
			<stop  offset="0.0382" style="stop-color:#87C361"/>
			<stop  offset="0.0754" style="stop-color:#77BA51"/>
			<stop  offset="0.117" style="stop-color:#6DB548"/>
			<stop  offset="0.1718" style="stop-color:#6AB345"/>
			<stop  offset="1" style="stop-color:#6AB345"/>
		</linearGradient>
		<path class="st7" d="M15.92,26.22c0.02,0,0.04,0,0.05,0c0.41-0.02,0.6-0.1,0.88-0.38l0.03-0.05l0.01-7.46V17.1h-1.9l0,8.67
			C15.07,25.98,15.48,26.22,15.92,26.22C15.92,26.22,15.92,26.22,15.92,26.22"/>
		
			<linearGradient id="SVGID_9_" gradientUnits="userSpaceOnUse" x1="-9970.7764" y1="-1639.1678" x2="-9970.7764" y2="-1647.4927" gradientTransform="matrix(-1 0 0 -1 -9956.8936 -1622.0686)">
			<stop  offset="0" style="stop-color:#62C3B0"/>
			<stop  offset="0.0184" style="stop-color:#62C3B0"/>
			<stop  offset="0.0245" style="stop-color:#5FC2AF"/>
			<stop  offset="0.0655" style="stop-color:#4FBFA9"/>
			<stop  offset="0.1114" style="stop-color:#45BDA5"/>
			<stop  offset="0.1718" style="stop-color:#42BCA4"/>
			<stop  offset="1" style="stop-color:#42BCA4"/>
		</linearGradient>
		<path class="st8" d="M13.91,25.42c0.42-0.02,0.6-0.1,0.88-0.38l0.03-0.05l0.01-6.7v-1.2h-1.9l0,7.88
			c0.08,0.21,0.49,0.45,0.92,0.45C13.88,25.42,13.9,25.42,13.91,25.42"/>
		
			<linearGradient id="SVGID_10_" gradientUnits="userSpaceOnUse" x1="-9968.7207" y1="-1639.1678" x2="-9968.7207" y2="-1648.2467" gradientTransform="matrix(-1 0 0 -1 -9956.8936 -1622.0686)">
			<stop  offset="0" style="stop-color:#90D5ED"/>
			<stop  offset="0.0184" style="stop-color:#90D5ED"/>
			<stop  offset="0.027" style="stop-color:#8CD4ED"/>
			<stop  offset="0.0832" style="stop-color:#75CFED"/>
			<stop  offset="0.1439" style="stop-color:#65CCEC"/>
			<stop  offset="0.2116" style="stop-color:#5BCAEC"/>
			<stop  offset="0.3006" style="stop-color:#58C9EC"/>
			<stop  offset="1" style="stop-color:#58C9EC"/>
		</linearGradient>
		<path class="st9" d="M11.86,26.18c0.41-0.02,0.6-0.1,0.88-0.38l0.03-0.05l0.01-7.42V17.1h-1.9l0,8.63
			c0.08,0.21,0.49,0.45,0.92,0.45C11.82,26.18,11.84,26.18,11.86,26.18"/>
		
			<linearGradient id="SVGID_11_" gradientUnits="userSpaceOnUse" x1="-9966.6641" y1="-1639.1678" x2="-9966.6641" y2="-1648.7798" gradientTransform="matrix(-1 0 0 -1 -9956.8936 -1622.0686)">
			<stop  offset="0" style="stop-color:#6788C5"/>
			<stop  offset="0.0781" style="stop-color:#5478BA"/>
			<stop  offset="0.1759" style="stop-color:#446BB1"/>
			<stop  offset="0.2854" style="stop-color:#3A63AC"/>
			<stop  offset="0.4294" style="stop-color:#3760AA"/>
			<stop  offset="1" style="stop-color:#3760AA"/>
		</linearGradient>
		<path class="st10" d="M9.8,26.71c0.41-0.02,0.6-0.1,0.88-0.38l0.03-0.05l0.01-8.22V17.1h-1.9l0.01,9.16
			c0.08,0.21,0.49,0.45,0.92,0.45C9.77,26.71,9.78,26.71,9.8,26.71"/>
		
			<linearGradient id="SVGID_12_" gradientUnits="userSpaceOnUse" x1="-9964.6074" y1="-1639.1678" x2="-9964.6074" y2="-1649.4369" gradientTransform="matrix(-1 0 0 -1 -9956.8936 -1622.0686)">
			<stop  offset="0" style="stop-color:#857DBA"/>
			<stop  offset="0.0736" style="stop-color:#857DBA"/>
			<stop  offset="0.0808" style="stop-color:#837BB9"/>
			<stop  offset="0.1701" style="stop-color:#6D64AB"/>
			<stop  offset="0.2664" style="stop-color:#5E54A2"/>
			<stop  offset="0.374" style="stop-color:#554A9C"/>
			<stop  offset="0.5153" style="stop-color:#52479A"/>
			<stop  offset="1" style="stop-color:#52479A"/>
		</linearGradient>
		<path class="st11" d="M7.75,27.37c0.41-0.02,0.6-0.1,0.88-0.38l0.03-0.05l0.01-8.9V17.1h-1.9l0.01,9.82
			c0.08,0.21,0.49,0.45,0.92,0.45C7.71,27.37,7.73,27.37,7.75,27.37"/>
		
			<linearGradient id="SVGID_13_" gradientUnits="userSpaceOnUse" x1="-9962.5518" y1="-1639.1678" x2="-9962.5518" y2="-1649.9202" gradientTransform="matrix(-1 0 0 -1 -9956.8936 -1622.0686)">
			<stop  offset="0" style="stop-color:#8E73B1"/>
			<stop  offset="0.0736" style="stop-color:#8E73B1"/>
			<stop  offset="0.1475" style="stop-color:#8366AA"/>
			<stop  offset="0.271" style="stop-color:#7656A3"/>
			<stop  offset="0.413" style="stop-color:#6E4D9E"/>
			<stop  offset="0.6135" style="stop-color:#6C4A9D"/>
			<stop  offset="1" style="stop-color:#6C4A9D"/>
		</linearGradient>
		<path class="st12" d="M5.69,27.85c0.41-0.02,0.6-0.1,0.88-0.38l0.03-0.05l0.01-9.37V17.1h-1.9l0.01,10.3
			c0.08,0.21,0.49,0.45,0.92,0.45C5.65,27.85,5.67,27.85,5.69,27.85"/>
		
			<linearGradient id="SVGID_14_" gradientUnits="userSpaceOnUse" x1="-9960.4951" y1="-1639.1678" x2="-9960.4951" y2="-1650.3997" gradientTransform="matrix(-1 0 0 -1 -9956.8936 -1622.0686)">
			<stop  offset="0" style="stop-color:#D17EB2"/>
			<stop  offset="0.0736" style="stop-color:#D17EB2"/>
			<stop  offset="0.1475" style="stop-color:#CB71AC"/>
			<stop  offset="0.271" style="stop-color:#C461A5"/>
			<stop  offset="0.413" style="stop-color:#BF58A0"/>
			<stop  offset="0.6135" style="stop-color:#BE559F"/>
			<stop  offset="1" style="stop-color:#BE559F"/>
		</linearGradient>
		<path class="st13" d="M3.63,28.33c0.41-0.02,0.6-0.1,0.88-0.38l0.03-0.05l0.01-9.86V17.1h-1.9l0.01,10.78
			c0.08,0.21,0.49,0.45,0.92,0.45C3.6,28.33,3.61,28.33,3.63,28.33"/>
		
			<linearGradient id="SVGID_15_" gradientUnits="userSpaceOnUse" x1="-9958.4395" y1="-1639.1678" x2="-9958.4395" y2="-1650.8748" gradientTransform="matrix(-1 0 0 -1 -9956.8936 -1622.0686)">
			<stop  offset="0" style="stop-color:#D891BE"/>
			<stop  offset="0.0736" style="stop-color:#D891BE"/>
			<stop  offset="0.1362" style="stop-color:#D480B5"/>
			<stop  offset="0.2388" style="stop-color:#CF6AA9"/>
			<stop  offset="0.3514" style="stop-color:#CC5AA0"/>
			<stop  offset="0.4803" style="stop-color:#CA519C"/>
			<stop  offset="0.6626" style="stop-color:#C94E9A"/>
			<stop  offset="1" style="stop-color:#C94E9A"/>
		</linearGradient>
		<path class="st14" d="M1.58,28.8c0.41-0.02,0.6-0.1,0.88-0.38l0.03-0.05L2.5,17.76V17.1h-1.9L0.6,28.36
			c0.08,0.21,0.49,0.45,0.92,0.45C1.54,28.81,1.56,28.81,1.58,28.8"/>
		<path class="st15" d="M29.31,17.1h0.15v9.17c0,0.08-0.07,0.15-0.15,0.15s-0.15-0.07-0.15-0.15V17.1H29.31"/>
		<path class="st16" d="M27.26,17.1h0.15v10.02c0,0.08-0.07,0.15-0.15,0.15c-0.08,0-0.15-0.07-0.15-0.15V17.1H27.26"/>
		<path class="st17" d="M25.17,17.1h0.15v10.77c0,0.08-0.07,0.15-0.15,0.15s-0.15-0.07-0.15-0.15V17.1H25.17"/>
		<path class="st18" d="M23.13,17.1h0.15v10.85c0,0.08-0.07,0.15-0.15,0.15c-0.08,0-0.15-0.07-0.15-0.15V17.1H23.13"/>
		<path class="st19" d="M21.09,17.1h0.15v10.24c0,0.08-0.07,0.15-0.15,0.15c-0.08,0-0.15-0.07-0.15-0.15V17.1H21.09"/>
		<path class="st20" d="M19.01,17.1h0.15v9.48c0,0.08-0.07,0.15-0.15,0.15c-0.08,0-0.15-0.07-0.15-0.15V17.1H19.01"/>
		<path class="st21" d="M16.95,17.1h0.15v8.64c0,0.08-0.07,0.15-0.15,0.15c-0.08,0-0.15-0.07-0.15-0.15V17.1H16.95"/>
		<path class="st22" d="M14.9,17.1h0.15v7.92c0,0.08-0.07,0.15-0.15,0.15c-0.08,0-0.15-0.07-0.15-0.15V17.1H14.9"/>
		<path class="st23" d="M12.87,17.1h0.15v7.92c0,0.08-0.07,0.15-0.15,0.15c-0.08,0-0.15-0.07-0.15-0.15V17.1H12.87"/>
		<path class="st24" d="M10.8,17.1h0.15v8.64c0,0.08-0.07,0.15-0.15,0.15c-0.08,0-0.15-0.07-0.15-0.15V17.1H10.8"/>
		<path class="st25" d="M8.75,17.1H8.9v9.2c0,0.08-0.07,0.15-0.15,0.15c-0.08,0-0.15-0.07-0.15-0.15v-9.2H8.75"/>
		<path class="st26" d="M6.69,17.1h0.15v9.8c0,0.08-0.07,0.15-0.15,0.15s-0.15-0.07-0.15-0.15v-9.8H6.69"/>
		<path class="st27" d="M4.63,17.1h0.15v10.32c0,0.08-0.07,0.15-0.15,0.15c-0.08,0-0.15-0.07-0.15-0.15V17.1H4.63"/>
		<path class="st28" d="M2.57,17.1h0.15v10.82c0,0.08-0.07,0.15-0.15,0.15c-0.08,0-0.15-0.07-0.15-0.15V17.1H2.57"/>
	</g>
	<g>
		
			<linearGradient id="SVGID_16_" gradientUnits="userSpaceOnUse" x1="-9115.6416" y1="-1419.678" x2="-9113.7422" y2="-1419.678" gradientTransform="matrix(1 0 0 1 9116.2354 1429.7728)">
			<stop  offset="0" style="stop-color:#C12227"/>
			<stop  offset="0.362" style="stop-color:#C12227"/>
			<stop  offset="0.6844" style="stop-color:#C22429"/>
			<stop  offset="0.8005" style="stop-color:#C72B2F"/>
			<stop  offset="0.8832" style="stop-color:#CF363A"/>
			<stop  offset="0.9497" style="stop-color:#DA4749"/>
			<stop  offset="1" style="stop-color:#E75A5A"/>
		</linearGradient>
		<path class="st29" d="M1.51,5.29c-0.42,0.02-0.6,0.1-0.88,0.38L0.6,5.72L0.59,13.1v1.8h1.9L2.49,5.74C2.41,5.53,2,5.29,1.57,5.29
			C1.55,5.29,1.53,5.29,1.51,5.29"/>
		
			<linearGradient id="SVGID_17_" gradientUnits="userSpaceOnUse" x1="-9113.5859" y1="-1420.1139" x2="-9111.6855" y2="-1420.1139" gradientTransform="matrix(1 0 0 1 9116.2354 1429.7728)">
			<stop  offset="0" style="stop-color:#EE4235"/>
			<stop  offset="0.362" style="stop-color:#EE4235"/>
			<stop  offset="0.7123" style="stop-color:#EE4337"/>
			<stop  offset="0.8385" style="stop-color:#EC483E"/>
			<stop  offset="0.9282" style="stop-color:#EA4F49"/>
			<stop  offset="1" style="stop-color:#E75A5A"/>
		</linearGradient>
		<path class="st30" d="M3.57,4.42c-0.42,0.02-0.6,0.1-0.88,0.38L2.66,4.85l-0.01,8.49v1.56h1.9L4.54,4.86
			C4.47,4.65,4.06,4.42,3.62,4.42C3.6,4.42,3.59,4.42,3.57,4.42"/>
		
			<linearGradient id="SVGID_18_" gradientUnits="userSpaceOnUse" x1="-9110.5791" y1="-1414.8719" x2="-9110.5791" y2="-1426.0266" gradientTransform="matrix(1 0 0 1 9116.2354 1429.7728)">
			<stop  offset="0" style="stop-color:#F58424"/>
			<stop  offset="0.362" style="stop-color:#F58424"/>
			<stop  offset="0.6676" style="stop-color:#F58526"/>
			<stop  offset="0.7778" style="stop-color:#F5882D"/>
			<stop  offset="0.8562" style="stop-color:#F58E38"/>
			<stop  offset="0.9197" style="stop-color:#F49749"/>
			<stop  offset="0.9734" style="stop-color:#F4A25F"/>
			<stop  offset="1" style="stop-color:#F4A96D"/>
		</linearGradient>
		<path class="st31" d="M5.62,3.75c-0.42,0.02-0.6,0.1-0.88,0.38L4.71,4.18l-0.01,9.2v1.52h1.9L6.6,4.19
			C6.52,3.98,6.11,3.75,5.68,3.75C5.66,3.75,5.64,3.75,5.62,3.75"/>
		
			<linearGradient id="SVGID_19_" gradientUnits="userSpaceOnUse" x1="-9108.5234" y1="-1414.8719" x2="-9108.5234" y2="-1426.579" gradientTransform="matrix(1 0 0 1 9116.2354 1429.7728)">
			<stop  offset="0" style="stop-color:#FCC175"/>
			<stop  offset="0.0184" style="stop-color:#FCC175"/>
			<stop  offset="0.132" style="stop-color:#FAAC46"/>
			<stop  offset="0.1718" style="stop-color:#F9A435"/>
			<stop  offset="1" style="stop-color:#F9A435"/>
		</linearGradient>
		<path class="st32" d="M7.68,3.2C7.27,3.22,7.08,3.31,6.8,3.63L6.77,3.69L6.76,14.9l0,0h1.9L8.66,3.71
			C8.58,3.47,8.17,3.19,7.74,3.19C7.72,3.19,7.7,3.19,7.68,3.2"/>
		
			<linearGradient id="SVGID_20_" gradientUnits="userSpaceOnUse" x1="-9106.4668" y1="-1414.8719" x2="-9106.4668" y2="-1426.3124" gradientTransform="matrix(1 0 0 1 9116.2354 1429.7728)">
			<stop  offset="0" style="stop-color:#F8DC8B"/>
			<stop  offset="0.0184" style="stop-color:#F8DC8B"/>
			<stop  offset="0.0839" style="stop-color:#F9D676"/>
			<stop  offset="0.1522" style="stop-color:#FAD267"/>
			<stop  offset="0.2086" style="stop-color:#FAD162"/>
			<stop  offset="1" style="stop-color:#FAD162"/>
		</linearGradient>
		<path class="st33" d="M9.74,3.46c-0.41,0.02-0.6,0.1-0.88,0.38L8.82,3.89l-0.01,9.49v1.52h1.9L10.71,3.91
			c-0.08-0.21-0.49-0.45-0.92-0.45C9.77,3.46,9.76,3.46,9.74,3.46"/>
		
			<linearGradient id="SVGID_21_" gradientUnits="userSpaceOnUse" x1="-9104.4102" y1="-1414.8719" x2="-9104.4102" y2="-1425.547" gradientTransform="matrix(1 0 0 1 9116.2354 1429.7728)">
			<stop  offset="0" style="stop-color:#F6F19A"/>
			<stop  offset="0.0184" style="stop-color:#F6F19A"/>
			<stop  offset="0.0245" style="stop-color:#F6F195"/>
			<stop  offset="0.0765" style="stop-color:#F5ED73"/>
			<stop  offset="0.1259" style="stop-color:#F4EB5B"/>
			<stop  offset="0.1712" style="stop-color:#F3E94C"/>
			<stop  offset="0.2086" style="stop-color:#F3E947"/>
			<stop  offset="1" style="stop-color:#F3E947"/>
		</linearGradient>
		<path class="st34" d="M11.79,4.23c-0.41,0.02-0.6,0.1-0.88,0.38l-0.03,0.05l-0.01,9v1.24h1.9L12.77,4.67
			c-0.08-0.21-0.49-0.45-0.92-0.45C11.83,4.23,11.81,4.23,11.79,4.23"/>
		
			<linearGradient id="SVGID_22_" gradientUnits="userSpaceOnUse" x1="-9102.3535" y1="-1414.8719" x2="-9102.3535" y2="-1424.7911" gradientTransform="matrix(1 0 0 1 9116.2354 1429.7728)">
			<stop  offset="0" style="stop-color:#CFE082"/>
			<stop  offset="0.0184" style="stop-color:#CFE082"/>
			<stop  offset="0.0447" style="stop-color:#CADE75"/>
			<stop  offset="0.1457" style="stop-color:#B9D547"/>
			<stop  offset="0.1963" style="stop-color:#B2D235"/>
			<stop  offset="1" style="stop-color:#B2D235"/>
		</linearGradient>
		<path class="st35" d="M13.85,4.98c-0.42,0.02-0.6,0.1-0.88,0.38l-0.03,0.05l-0.01,8.23v1.26h1.9l-0.01-9.47
			c-0.08-0.21-0.49-0.45-0.92-0.45C13.89,4.98,13.87,4.98,13.85,4.98"/>
		
			<linearGradient id="SVGID_23_" gradientUnits="userSpaceOnUse" x1="-9100.2979" y1="-1414.8719" x2="-9100.2979" y2="-1423.9894" gradientTransform="matrix(1 0 0 1 9116.2354 1429.7728)">
			<stop  offset="0" style="stop-color:#93CA6D"/>
			<stop  offset="0.0184" style="stop-color:#93CA6D"/>
			<stop  offset="0.0382" style="stop-color:#87C361"/>
			<stop  offset="0.0754" style="stop-color:#77BA51"/>
			<stop  offset="0.117" style="stop-color:#6DB548"/>
			<stop  offset="0.1718" style="stop-color:#6AB345"/>
			<stop  offset="1" style="stop-color:#6AB345"/>
		</linearGradient>
		<path class="st36" d="M15.96,5.78c-0.02,0-0.04,0-0.05,0c-0.41,0.02-0.6,0.1-0.88,0.38l-0.03,0.05l-0.01,7.46v1.23h1.9l0-8.67
			C16.81,6.02,16.4,5.78,15.96,5.78C15.96,5.78,15.96,5.78,15.96,5.78"/>
		
			<linearGradient id="SVGID_24_" gradientUnits="userSpaceOnUse" x1="-9098.2412" y1="-1414.8719" x2="-9098.2412" y2="-1423.1969" gradientTransform="matrix(1 0 0 1 9116.2354 1429.7728)">
			<stop  offset="0" style="stop-color:#62C3B0"/>
			<stop  offset="0.0184" style="stop-color:#62C3B0"/>
			<stop  offset="0.0245" style="stop-color:#5FC2AF"/>
			<stop  offset="0.0655" style="stop-color:#4FBFA9"/>
			<stop  offset="0.1114" style="stop-color:#45BDA5"/>
			<stop  offset="0.1718" style="stop-color:#42BCA4"/>
			<stop  offset="1" style="stop-color:#42BCA4"/>
		</linearGradient>
		<path class="st37" d="M17.96,6.58c-0.42,0.02-0.6,0.1-0.88,0.38l-0.03,0.05l-0.01,6.7v1.2h1.9l0-7.88
			c-0.08-0.21-0.49-0.45-0.92-0.45C18,6.58,17.98,6.58,17.96,6.58"/>
		
			<linearGradient id="SVGID_25_" gradientUnits="userSpaceOnUse" x1="-9096.1846" y1="-1414.8719" x2="-9096.1846" y2="-1423.9509" gradientTransform="matrix(1 0 0 1 9116.2354 1429.7728)">
			<stop  offset="0" style="stop-color:#90D5ED"/>
			<stop  offset="0.0184" style="stop-color:#90D5ED"/>
			<stop  offset="0.027" style="stop-color:#8CD4ED"/>
			<stop  offset="0.0832" style="stop-color:#75CFED"/>
			<stop  offset="0.1439" style="stop-color:#65CCEC"/>
			<stop  offset="0.2116" style="stop-color:#5BCAEC"/>
			<stop  offset="0.3006" style="stop-color:#58C9EC"/>
			<stop  offset="1" style="stop-color:#58C9EC"/>
		</linearGradient>
		<path class="st38" d="M20.02,5.82c-0.41,0.02-0.6,0.1-0.88,0.38l-0.03,0.05l-0.01,7.42v1.23H21l0-8.63
			c-0.08-0.21-0.49-0.45-0.92-0.45C20.06,5.82,20.04,5.82,20.02,5.82"/>
		
			<linearGradient id="SVGID_26_" gradientUnits="userSpaceOnUse" x1="-9094.1289" y1="-1414.8719" x2="-9094.1289" y2="-1424.484" gradientTransform="matrix(1 0 0 1 9116.2354 1429.7728)">
			<stop  offset="0" style="stop-color:#6788C5"/>
			<stop  offset="0.0781" style="stop-color:#5478BA"/>
			<stop  offset="0.1759" style="stop-color:#446BB1"/>
			<stop  offset="0.2854" style="stop-color:#3A63AC"/>
			<stop  offset="0.4294" style="stop-color:#3760AA"/>
			<stop  offset="1" style="stop-color:#3760AA"/>
		</linearGradient>
		<path class="st39" d="M22.08,5.29c-0.41,0.02-0.6,0.1-0.88,0.38l-0.03,0.05l-0.01,8.22v0.96h1.9l-0.01-9.16
			c-0.08-0.21-0.49-0.45-0.92-0.45C22.11,5.29,22.09,5.29,22.08,5.29"/>
		
			<linearGradient id="SVGID_27_" gradientUnits="userSpaceOnUse" x1="-9092.0723" y1="-1414.8719" x2="-9092.0723" y2="-1425.1411" gradientTransform="matrix(1 0 0 1 9116.2354 1429.7728)">
			<stop  offset="0" style="stop-color:#857DBA"/>
			<stop  offset="0.0736" style="stop-color:#857DBA"/>
			<stop  offset="0.0808" style="stop-color:#837BB9"/>
			<stop  offset="0.1701" style="stop-color:#6D64AB"/>
			<stop  offset="0.2664" style="stop-color:#5E54A2"/>
			<stop  offset="0.374" style="stop-color:#554A9C"/>
			<stop  offset="0.5153" style="stop-color:#52479A"/>
			<stop  offset="1" style="stop-color:#52479A"/>
		</linearGradient>
		<path class="st40" d="M24.13,4.63c-0.41,0.02-0.6,0.1-0.88,0.38l-0.03,0.05l-0.01,8.9v0.94h1.9l-0.01-9.82
			c-0.08-0.21-0.49-0.45-0.92-0.45C24.17,4.63,24.15,4.63,24.13,4.63"/>
		
			<linearGradient id="SVGID_28_" gradientUnits="userSpaceOnUse" x1="-9090.0156" y1="-1414.8719" x2="-9090.0156" y2="-1425.6244" gradientTransform="matrix(1 0 0 1 9116.2354 1429.7728)">
			<stop  offset="0" style="stop-color:#8E73B1"/>
			<stop  offset="0.0736" style="stop-color:#8E73B1"/>
			<stop  offset="0.1475" style="stop-color:#8366AA"/>
			<stop  offset="0.271" style="stop-color:#7656A3"/>
			<stop  offset="0.413" style="stop-color:#6E4D9E"/>
			<stop  offset="0.6135" style="stop-color:#6C4A9D"/>
			<stop  offset="1" style="stop-color:#6C4A9D"/>
		</linearGradient>
		<path class="st41" d="M26.19,4.15c-0.41,0.02-0.6,0.1-0.88,0.38l-0.03,0.05l-0.01,9.37v0.95h1.9L27.16,4.6
			c-0.08-0.21-0.49-0.45-0.92-0.45C26.23,4.15,26.21,4.15,26.19,4.15"/>
		
			<linearGradient id="SVGID_29_" gradientUnits="userSpaceOnUse" x1="-9087.96" y1="-1414.8719" x2="-9087.96" y2="-1426.1039" gradientTransform="matrix(1 0 0 1 9116.2354 1429.7728)">
			<stop  offset="0" style="stop-color:#D17EB2"/>
			<stop  offset="0.0736" style="stop-color:#D17EB2"/>
			<stop  offset="0.1475" style="stop-color:#CB71AC"/>
			<stop  offset="0.271" style="stop-color:#C461A5"/>
			<stop  offset="0.413" style="stop-color:#BF58A0"/>
			<stop  offset="0.6135" style="stop-color:#BE559F"/>
			<stop  offset="1" style="stop-color:#BE559F"/>
		</linearGradient>
		<path class="st42" d="M28.24,3.67c-0.41,0.02-0.6,0.1-0.88,0.38L27.33,4.1l-0.01,9.86v0.94h1.9L29.22,4.12
			c-0.08-0.21-0.49-0.45-0.92-0.45C28.28,3.67,28.26,3.67,28.24,3.67"/>
		
			<linearGradient id="SVGID_30_" gradientUnits="userSpaceOnUse" x1="-9085.9033" y1="-1414.8719" x2="-9085.9033" y2="-1426.579" gradientTransform="matrix(1 0 0 1 9116.2354 1429.7728)">
			<stop  offset="0" style="stop-color:#D891BE"/>
			<stop  offset="0.0736" style="stop-color:#D891BE"/>
			<stop  offset="0.1362" style="stop-color:#D480B5"/>
			<stop  offset="0.2388" style="stop-color:#CF6AA9"/>
			<stop  offset="0.3514" style="stop-color:#CC5AA0"/>
			<stop  offset="0.4803" style="stop-color:#CA519C"/>
			<stop  offset="0.6626" style="stop-color:#C94E9A"/>
			<stop  offset="1" style="stop-color:#C94E9A"/>
		</linearGradient>
		<path class="st43" d="M30.3,3.2c-0.41,0.02-0.6,0.1-0.88,0.38l-0.03,0.05l-0.01,10.62v0.66h1.9L31.28,3.64
			c-0.08-0.21-0.49-0.45-0.92-0.45C30.34,3.19,30.32,3.19,30.3,3.2"/>
		<path class="st15" d="M2.56,14.9H2.41V5.73c0-0.08,0.07-0.15,0.15-0.15s0.15,0.07,0.15,0.15v9.17H2.56"/>
		<path class="st16" d="M4.62,14.9H4.47V4.88c0-0.08,0.07-0.15,0.15-0.15c0.08,0,0.15,0.07,0.15,0.15V14.9H4.62"/>
		<path class="st17" d="M6.71,14.9H6.56V4.13c0-0.08,0.07-0.15,0.15-0.15s0.15,0.07,0.15,0.15V14.9H6.71"/>
		<path class="st18" d="M8.75,14.9H8.59V4.05c0-0.08,0.07-0.15,0.15-0.15c0.08,0,0.15,0.07,0.15,0.15V14.9H8.75"/>
		<path class="st19" d="M10.78,14.9h-0.15V4.66c0-0.08,0.07-0.15,0.15-0.15c0.08,0,0.15,0.07,0.15,0.15V14.9H10.78"/>
		<path class="st20" d="M12.87,14.9h-0.15V5.42c0-0.08,0.07-0.15,0.15-0.15c0.08,0,0.15,0.07,0.15,0.15v9.48H12.87"/>
		<path class="st21" d="M14.92,14.9h-0.15V6.26c0-0.08,0.07-0.15,0.15-0.15c0.08,0,0.15,0.07,0.15,0.15v8.64H14.92"/>
		<path class="st22" d="M16.98,14.9h-0.15V6.98c0-0.08,0.07-0.15,0.15-0.15c0.08,0,0.15,0.07,0.15,0.15v7.92H16.98"/>
		<path class="st23" d="M19.01,14.9h-0.15V6.98c0-0.08,0.07-0.15,0.15-0.15c0.08,0,0.15,0.07,0.15,0.15v7.92H19.01"/>
		<path class="st24" d="M21.08,14.9h-0.15V6.26c0-0.08,0.07-0.15,0.15-0.15c0.08,0,0.15,0.07,0.15,0.15v8.64H21.08"/>
		<path class="st25" d="M23.13,14.9h-0.15V5.7c0-0.08,0.07-0.15,0.15-0.15c0.08,0,0.15,0.07,0.15,0.15v9.2H23.13"/>
		<path class="st26" d="M25.18,14.9h-0.15v-9.8c0-0.08,0.07-0.15,0.15-0.15s0.15,0.07,0.15,0.15v9.8H25.18"/>
		<path class="st27" d="M27.25,14.9H27.1V4.58c0-0.08,0.07-0.15,0.15-0.15c0.08,0,0.15,0.07,0.15,0.15V14.9H27.25"/>
		<path class="st28" d="M29.3,14.9h-0.15V4.08c0-0.08,0.07-0.15,0.15-0.15S29.46,4,29.46,4.08V14.9H29.3"/>
	</g>
	<g>
		<rect x="0.59" y="13.62" class="st44" width="30.69" height="4.75"/>
		<g>
			<text transform="matrix(1 0 0 1 21.043 17.1802)" class="st45 st46 st47">System</text>
			<text transform="matrix(1 0 0 1 1.2969 17.2476)" class="st45 st46 st47">Kelin </text>
			<text transform="matrix(1 0 0 1 7.8398 17.2476)" class="st45 st46 st47">Graphics </text>
		</g>
	</g>
</g>
</svg>
